<?xml version="1.0" encoding="UTF-8"?>
<svg xmlns="http://www.w3.org/2000/svg" xmlns:xlink="http://www.w3.org/1999/xlink" width="128px" height="128px" viewBox="0 0 128 128" version="1.1">
<g id="surface1">
<path style=" stroke:none;fill-rule:nonzero;fill:rgb(100%,100%,100%);fill-opacity:1;" d="M 65.683594 71.84375 C 65.671875 72.632812 65.546875 73.410156 65.3125 74.164062 C 64.78125 75.925781 63.546875 77.398438 61.902344 78.226562 C 60.871094 78.726562 59.738281 78.972656 58.59375 78.9375 L 36.386719 78.9375 C 35.984375 78.941406 35.582031 78.867188 35.210938 78.71875 C 34.859375 78.570312 34.539062 78.351562 34.273438 78.078125 C 34 77.8125 33.785156 77.496094 33.636719 77.144531 C 33.484375 76.773438 33.40625 76.375 33.410156 75.972656 L 33.410156 49.609375 C 33.410156 49.214844 33.484375 48.824219 33.636719 48.460938 C 33.785156 48.105469 34 47.785156 34.273438 47.515625 C 34.539062 47.238281 34.855469 47.019531 35.210938 46.875 C 35.578125 46.71875 35.972656 46.640625 36.375 46.644531 L 55.949219 46.644531 C 56.738281 46.65625 57.515625 46.785156 58.265625 47.027344 C 59.105469 47.292969 59.886719 47.707031 60.570312 48.257812 C 61.3125 48.855469 61.917969 49.601562 62.347656 50.453125 C 62.851562 51.480469 63.09375 52.613281 63.058594 53.753906 L 63.058594 54.863281 C 63.042969 55.992188 62.871094 57.117188 62.539062 58.203125 C 62.183594 59.417969 61.621094 60.5625 60.878906 61.585938 C 61.550781 62 62.171875 62.488281 62.734375 63.046875 C 63.324219 63.636719 63.835938 64.304688 64.25 65.03125 C 64.707031 65.832031 65.054688 66.695312 65.285156 67.589844 C 65.550781 68.613281 65.679688 69.664062 65.671875 70.71875 Z M 59.835938 70.726562 C 59.84375 70.023438 59.722656 69.324219 59.46875 68.664062 C 59.023438 67.484375 58.089844 66.550781 56.910156 66.105469 C 56.246094 65.867188 55.546875 65.75 54.84375 65.761719 L 41.609375 65.761719 L 41.609375 59.867188 L 52.15625 59.867188 C 52.863281 59.875 53.5625 59.753906 54.226562 59.515625 C 55.417969 59.082031 56.355469 58.144531 56.789062 56.953125 C 57.03125 56.296875 57.152344 55.601562 57.140625 54.898438 L 57.140625 53.761719 C 57.140625 52.921875 56.738281 52.480469 55.925781 52.480469 L 39.292969 52.480469 L 39.292969 73.085938 L 58.59375 73.085938 C 58.71875 73.09375 58.847656 73.09375 58.976562 73.085938 C 59.121094 73.078125 59.257812 73.03125 59.378906 72.953125 C 59.515625 72.855469 59.628906 72.722656 59.699219 72.570312 C 59.800781 72.335938 59.847656 72.082031 59.835938 71.828125 Z M 59.835938 70.726562 "/>
<path style=" stroke:none;fill-rule:nonzero;fill:rgb(100%,100%,100%);fill-opacity:1;" d="M 31.863281 67.597656 C 31.632812 66.699219 31.28125 65.839844 30.824219 65.035156 C 30.410156 64.308594 29.902344 63.644531 29.308594 63.054688 C 28.746094 62.496094 28.125 62.007812 27.453125 61.59375 C 28.195312 60.566406 28.757812 59.421875 29.117188 58.207031 C 29.445312 57.125 29.621094 56 29.636719 54.867188 L 29.636719 53.761719 C 29.671875 52.617188 29.429688 51.484375 28.925781 50.457031 C 28.492188 49.609375 27.886719 48.863281 27.144531 48.265625 C 26.460938 47.714844 25.679688 47.296875 24.84375 47.035156 C 24.09375 46.792969 23.3125 46.664062 22.527344 46.652344 L 9.085938 46.652344 C 8.921875 47.175781 8.761719 47.707031 8.613281 48.238281 C 8.464844 48.769531 8.332031 49.261719 8.199219 49.773438 L 8.199219 49.851562 C 8.164062 49.972656 8.140625 50.085938 8.113281 50.210938 C 8.035156 50.53125 7.957031 50.847656 7.882812 51.167969 C 7.78125 51.609375 7.6875 52.050781 7.597656 52.5 L 22.558594 52.5 C 23.363281 52.5 23.765625 52.921875 23.765625 53.78125 L 23.765625 54.886719 C 23.777344 55.585938 23.660156 56.285156 23.421875 56.941406 C 23.203125 57.53125 22.859375 58.0625 22.417969 58.507812 C 21.964844 58.960938 21.414062 59.308594 20.8125 59.519531 C 20.148438 59.761719 19.449219 59.878906 18.742188 59.871094 L 8.191406 59.871094 L 8.191406 65.765625 L 21.375 65.765625 C 22.082031 65.753906 22.78125 65.871094 23.445312 66.113281 C 24.628906 66.558594 25.5625 67.488281 26.007812 68.671875 C 26.257812 69.328125 26.378906 70.027344 26.367188 70.730469 L 26.367188 71.808594 C 26.378906 72.0625 26.332031 72.316406 26.230469 72.550781 C 26.164062 72.703125 26.054688 72.835938 25.917969 72.933594 C 25.796875 73.011719 25.65625 73.054688 25.515625 73.066406 C 25.386719 73.074219 25.257812 73.074219 25.128906 73.066406 L 7.136719 73.066406 C 7.207031 73.515625 7.28125 73.957031 7.359375 74.398438 C 7.398438 74.617188 7.441406 74.839844 7.488281 75.039062 C 7.53125 75.238281 7.578125 75.480469 7.621094 75.679688 L 7.738281 76.234375 C 7.789062 76.492188 7.84375 76.746094 7.910156 77.003906 C 7.910156 77.097656 7.949219 77.1875 7.972656 77.285156 C 8 77.382812 8.039062 77.574219 8.074219 77.714844 C 8.171875 78.105469 8.273438 78.496094 8.375 78.878906 L 25.15625 78.878906 C 26.300781 78.914062 27.4375 78.671875 28.464844 78.167969 C 29.308594 77.738281 30.054688 77.136719 30.652344 76.402344 C 31.203125 75.722656 31.617188 74.941406 31.867188 74.105469 C 32.105469 73.355469 32.230469 72.574219 32.238281 71.789062 L 32.238281 70.667969 C 32.246094 69.632812 32.117188 68.601562 31.863281 67.597656 Z M 31.863281 67.597656 "/>
<path style=" stroke:none;fill-rule:nonzero;fill:rgb(100%,100%,100%);fill-opacity:1;" d="M 64.007812 0.0078125 C 36.570312 0 12.179688 17.484375 3.378906 43.472656 L 9.074219 43.472656 C 9.433594 43.472656 9.785156 43.53125 10.125 43.648438 C 10.125 43.59375 10.167969 43.535156 10.195312 43.472656 C 20.1875 17.289062 47.570312 2.101562 75.070312 7.484375 C 102.570312 12.871094 122.203125 37.265625 121.582031 65.285156 C 120.960938 93.300781 100.265625 116.800781 72.554688 120.960938 C 44.84375 125.121094 18.15625 108.734375 9.335938 82.136719 C 9.335938 82.085938 9.304688 82.039062 9.292969 81.996094 C 8.996094 82.089844 8.6875 82.136719 8.375 82.136719 L 2.617188 82.136719 C 11.960938 113.753906 43.796875 133.097656 76.164062 126.824219 C 108.53125 120.550781 130.835938 90.710938 127.6875 57.894531 C 124.542969 25.074219 96.976562 0.015625 64.007812 0.0078125 Z M 64.007812 0.0078125 "/>
<path style=" stroke:none;fill-rule:nonzero;fill:rgb(100%,100%,100%);fill-opacity:1;" d="M 5.847656 73.085938 L 7.128906 73.085938 C 7.199219 73.535156 7.277344 73.976562 7.351562 74.417969 C 7.390625 74.636719 7.4375 74.859375 7.480469 75.058594 C 7.527344 75.257812 7.570312 75.5 7.617188 75.699219 L 7.730469 76.253906 C 7.789062 76.511719 7.839844 76.765625 7.902344 77.023438 C 7.902344 77.117188 7.941406 77.207031 7.96875 77.304688 C 7.992188 77.398438 8.03125 77.59375 8.070312 77.734375 C 8.164062 78.125 8.269531 78.515625 8.371094 78.898438 L 2.945312 78.898438 C 2.542969 78.902344 2.144531 78.824219 1.773438 78.671875 L 1.695312 78.636719 C 1.375 78.496094 1.085938 78.296875 0.839844 78.054688 C 0.5625 77.789062 0.347656 77.46875 0.199219 77.117188 C 0.0429688 76.75 -0.0351562 76.347656 -0.03125 75.949219 L -0.03125 49.582031 C -0.0351562 49.351562 -0.0078125 49.121094 0.0507812 48.898438 C 0.0820312 48.738281 0.132812 48.585938 0.199219 48.4375 C 0.347656 48.082031 0.5625 47.757812 0.839844 47.488281 C 1.101562 47.214844 1.421875 46.996094 1.773438 46.851562 C 1.964844 46.765625 2.164062 46.707031 2.367188 46.671875 C 2.558594 46.636719 2.75 46.621094 2.945312 46.621094 L 9.066406 46.621094 C 8.902344 47.144531 8.742188 47.675781 8.59375 48.207031 C 8.445312 48.738281 8.3125 49.230469 8.179688 49.742188 L 8.179688 49.820312 C 8.144531 49.941406 8.121094 50.054688 8.09375 50.175781 C 8.015625 50.496094 7.9375 50.816406 7.863281 51.136719 C 7.761719 51.578125 7.667969 52.019531 7.578125 52.46875 L 5.863281 52.46875 Z M 5.847656 73.085938 "/>
</g>
</svg>
