<?xml version="1.0" standalone="no"?>
<!DOCTYPE svg PUBLIC "-//W3C//DTD SVG 20010904//EN"
 "http://www.w3.org/TR/2001/REC-SVG-20010904/DTD/svg10.dtd">
<svg version="1.0" xmlns="http://www.w3.org/2000/svg"
 width="512.000000pt" height="512.000000pt" viewBox="0 0 512.000000 512.000000"
 preserveAspectRatio="xMidYMid meet">

<g transform="translate(0.000000,512.000000) scale(0.100000,-0.100000)"
fill="#000000" stroke="none">
<path d="M995 5104 c-44 -23 -343 -322 -366 -366 -24 -48 -24 -89 1 -138 23
-45 80 -80 130 -80 17 0 47 9 68 19 45 24 344 324 366 368 61 122 -78 260
-199 197z"/>
<path d="M1895 5104 c-44 -23 -343 -322 -366 -366 -24 -48 -24 -89 1 -138 23
-45 80 -80 130 -80 17 0 47 9 68 19 45 24 344 324 366 368 61 122 -78 260
-199 197z"/>
<path d="M2795 5104 c-44 -23 -343 -322 -366 -366 -24 -48 -24 -89 1 -138 23
-45 80 -80 130 -80 17 0 47 9 68 19 45 24 344 324 366 368 61 122 -78 260
-199 197z"/>
<path d="M3695 5104 c-44 -23 -343 -322 -366 -366 -24 -48 -24 -89 1 -138 23
-45 80 -80 130 -80 17 0 47 9 68 19 45 24 344 324 366 368 61 122 -78 260
-199 197z"/>
<path d="M4595 5104 c-44 -23 -343 -322 -366 -366 -24 -48 -24 -89 1 -138 23
-45 80 -80 130 -80 17 0 47 9 68 19 45 24 344 324 366 368 61 122 -78 260
-199 197z"/>
<path d="M4905 4214 c-44 -23 -353 -332 -376 -376 -24 -48 -24 -89 1 -138 23
-45 80 -80 130 -80 17 0 47 9 68 19 45 24 354 334 376 378 61 122 -78 260
-199 197z"/>
<path d="M395 4204 c-44 -23 -353 -332 -376 -376 -24 -48 -24 -89 1 -138 23
-45 80 -80 130 -80 17 0 47 9 68 19 45 24 354 334 376 378 61 122 -78 260
-199 197z"/>
<path d="M1295 4204 c-44 -23 -343 -322 -366 -366 -10 -21 -19 -51 -19 -68 0
-50 35 -107 80 -130 49 -25 90 -25 138 -1 45 24 344 324 366 368 61 122 -78
260 -199 197z"/>
<path d="M3995 4204 c-44 -23 -343 -322 -366 -366 -10 -21 -19 -51 -19 -68 0
-50 35 -107 80 -130 49 -25 90 -25 138 -1 45 24 344 324 366 368 61 122 -78
260 -199 197z"/>
<path d="M2488 3899 c-58 -30 -78 -79 -78 -192 l0 -94 -87 -7 c-218 -16 -514
-101 -738 -210 -306 -149 -550 -356 -720 -611 -156 -232 -235 -463 -251 -733
-6 -98 -5 -111 15 -150 24 -47 80 -82 131 -82 47 0 102 33 139 85 145 203 477
274 725 156 86 -41 139 -82 193 -152 55 -70 85 -89 143 -89 57 0 91 21 133 79
60 84 192 173 290 197 l27 6 0 -841 c0 -824 0 -843 -20 -881 -23 -45 -80 -80
-131 -80 -73 0 -149 76 -149 150 0 76 -74 150 -150 150 -50 0 -107 -35 -130
-80 -50 -98 2 -273 115 -385 172 -173 440 -178 621 -13 59 54 116 156 133 236
8 36 11 318 11 899 l0 845 28 -6 c15 -4 60 -22 99 -42 68 -33 124 -80 220
-187 59 -65 150 -63 211 5 129 145 220 204 357 233 230 48 478 -35 596 -200
37 -52 92 -85 139 -85 51 0 107 35 131 82 20 38 21 53 16 143 -31 496 -296
929 -752 1227 -268 176 -656 311 -958 334 l-87 7 0 94 c0 115 -19 162 -80 193
-49 25 -94 25 -142 -1z m270 -589 c138 -15 290 -47 412 -86 137 -45 362 -157
475 -238 113 -81 249 -215 326 -318 56 -75 169 -285 169 -313 0 -9 -18 -6 -66
11 -276 101 -605 56 -841 -113 l-73 -52 -73 52 c-87 63 -186 109 -293 139
-114 31 -354 31 -468 0 -107 -30 -206 -76 -293 -139 l-73 -52 -73 52 c-253
181 -602 217 -899 92 -17 -7 -17 -5 -2 31 110 267 293 483 549 650 345 224
798 329 1223 284z"/>
</g>
</svg>
