<?xml version="1.0" standalone="no"?>
<!DOCTYPE svg PUBLIC "-//W3C//DTD SVG 20010904//EN"
 "http://www.w3.org/TR/2001/REC-SVG-20010904/DTD/svg10.dtd">
<svg version="1.0" xmlns="http://www.w3.org/2000/svg"
 width="512.000000pt" height="512.000000pt" viewBox="0 0 512.000000 512.000000"
 preserveAspectRatio="xMidYMid meet">

<g transform="translate(0.000000,512.000000) scale(0.100000,-0.100000)"
fill="#000000" stroke="none">
<path d="M2707 5110 c-109 -28 -211 -113 -261 -220 l-31 -65 -3 -362 -3 -361
-31 -11 c-95 -33 -241 -21 -361 30 -38 16 -83 29 -101 29 -73 0 -146 -75 -146
-150 0 -23 41 -126 119 -300 l118 -265 -26 -6 c-76 -17 -131 -80 -131 -149 0
-76 74 -150 150 -150 25 0 30 -3 26 -17 -136 -453 -198 -907 -167 -1218 45
-433 204 -930 463 -1445 l88 -175 0 -78 c0 -98 22 -148 80 -177 50 -25 90 -25
140 0 58 30 80 79 80 180 0 79 1 82 59 193 230 434 414 964 478 1377 24 155
24 476 0 649 -29 207 -95 506 -153 694 -4 14 1 17 26 17 50 0 107 35 130 80
48 94 -3 195 -111 219 l-26 6 118 265 c78 174 119 277 119 300 0 75 -73 150
-146 150 -18 0 -64 -14 -103 -30 -99 -43 -201 -57 -297 -42 -42 7 -80 15 -85
18 -5 3 -9 150 -9 335 l0 331 29 29 c20 20 39 29 61 29 43 0 90 -47 90 -90 0
-76 74 -150 150 -150 51 0 107 35 131 82 45 88 -1 246 -99 344 -67 68 -152
105 -250 110 -42 2 -94 -1 -115 -6z m-37 -1310 c41 -11 117 -24 168 -27 50 -3
92 -9 91 -12 0 -3 -33 -78 -73 -166 l-72 -160 -224 0 -224 0 -72 160 c-40 88
-73 163 -73 168 -1 4 25 7 57 7 68 1 191 22 247 43 47 18 75 16 175 -13z m111
-697 c48 -126 133 -488 164 -698 55 -376 14 -714 -145 -1180 -72 -210 -222
-565 -240 -565 -15 0 -154 320 -223 515 -204 576 -233 951 -116 1489 29 133
95 379 118 439 l11 27 210 0 210 0 11 -27z"/>
</g>
</svg>
